M48
;DRILL file {KiCad 4.0.7} date 09/29/18 01:33:38
;FORMAT={3:3/ absolute / metric / suppress trailing zeros}
FMAT,2
METRIC,LZ
T1C0.400
%
G90
G05
M71
T1
X122047Y-118364
X12211Y-110871
X122492Y-100648
X122873Y-113856
X125857Y-101981
X125857Y-110871
X125857Y-118364
X125984Y-114935
X128016Y-104712
X128397Y-10033
X128778Y-114935
X128842Y-098806
X128842Y-106998
X128842Y-108712
X128842Y-11176
X131255Y-104521
X131509Y-097663
X132207Y-098806
X132271Y-106998
X132271Y-108648
X132271Y-114935
X132271Y-118173
X132969Y-100521
X133921Y-104584
X133985Y-10033
X134938Y-104394
X136081Y-114872
X136144Y-104267
X136144Y-106934
X136144Y-108585
X136144Y-11176
X137668Y-118173
X137731Y-101473
X137731Y-116078
X137795Y-098806
X139065Y-104584
X139636Y-106807
X140081Y-116078
X140589Y-098044
X140907Y-114998
X141097Y-108522
X143129Y-104458
X143764Y-107124
X143891Y-105537
X143955Y-118427
X144018Y-114998
X144209Y-104712
X144209Y-111506
X144399Y-106363
X144844Y-116078
X144907Y-109728
T0
M30
